<svg xmlns="http://www.w3.org/2000/svg" width="933.333" height="933.333" version="1" viewBox="0 0 700 700">
  <path d="M 116.99931,0.49951189 C 52.924283,0.49951189 0.50025017,52.925021 0.50025017,117.00004 v 465.99918 c 0,64.07503 52.42403283,116.50054 116.49905983,116.50054 h 466.00065 c 64.07501,0 116.50053,-52.42551 116.50053,-116.50054 V 117.00004 C 699.50049,52.925021 647.07497,0.49951189 582.99996,0.49951189 Z M 173.22296,146.91216 h 66.47464 c 12.79549,0 24.02996,2.33971 33.7046,7.021 9.75267,4.68127 17.24329,11.35233 22.47071,20.0127 5.22744,8.58235 7.84131,18.37352 7.84131,29.37452 0,16.69657 -5.73546,29.88202 -17.20459,39.55666 -11.39111,9.59663 -27.19044,14.39502 -47.39797,14.39502 h -30.77931 v 60.03811 h -35.10939 z m 35.10939,28.43849 v 53.48293 h 31.36525 c 9.28453,0 16.34433,-2.18452 21.18164,-6.55372 4.91536,-4.36918 7.37404,-10.61088 7.37404,-18.7251 -1e-5,-8.34828 -2.45868,-15.0962 -7.37404,-20.24561 -4.91533,-5.14941 -11.70242,-7.80247 -20.3628,-7.9585 z m 167.11676,12.99023 c 17.32073,0 30.93555,5.46131 40.84425,16.38429 9.98673,10.92298 14.98096,26.41044 14.98096,46.46193 v 13.80908 h -80.63528 c 1.0923,8.27026 4.36908,14.90216 9.83057,19.89552 5.53953,4.99337 12.52243,7.49121 20.94874,7.49121 13.02956,0 23.21093,-4.72153 30.54494,-14.16211 l 16.61865,18.60938 c -5.07139,7.17796 -11.93681,12.79445 -20.59717,16.85157 -8.66037,3.97908 -18.25717,5.96924 -28.79005,5.96924 -18.56908,0 -33.70552,-5.6963 -45.40871,-17.08741 -11.62519,-11.39112 -17.4375,-26.56525 -17.4375,-45.52443 v -3.27685 c 0,-12.71748 2.45721,-24.06943 7.37256,-34.05617 4.91534,-10.06475 11.85909,-17.78891 20.83155,-23.17237 9.05047,-5.46149 19.34933,-8.19288 30.89649,-8.19288 z m 140.79497,0 c 3.74501,0 7.25534,0.50772 10.53223,1.52198 l -0.46729,32.53419 c -4.60325,-0.62417 -8.66042,-0.93604 -12.17138,-0.93604 -12.7955,0 -21.18402,4.32988 -25.1631,12.99024 v 82.85892 H 455.15275 V 190.68171 h 31.94972 l 0.93604,15.09668 c 6.78785,-11.62517 16.19028,-17.43751 28.20557,-17.43751 z m -140.91069,27.38527 c -6.70984,0 -12.17261,2.26285 -16.38575,6.78809 -4.13512,4.52524 -6.7867,11.00046 -7.95703,19.42676 h 47.0464 v -2.69092 c -0.15604,-7.49005 -2.18536,-13.26467 -6.08643,-17.32178 -3.90107,-4.13512 -9.43923,-6.20215 -16.61719,-6.20215 z M 175.4466,338.65734 h 35.10939 V 509.05535 H 175.4466 Z m 133.88384,41.42873 c 13.41966,0 23.40666,3.93968 29.96045,11.81983 6.55379,7.88015 9.90889,19.66148 10.06495,35.34376 v 81.80569 h -33.82179 v -80.98684 c 0,-7.17797 -1.5608,-12.36511 -4.68164,-15.56397 -3.12086,-3.2769 -8.30945,-4.91602 -15.56543,-4.91602 -9.51861,0 -16.65673,4.05717 -21.41603,12.17139 v 89.29544 H 240.04769 V 382.42689 h 31.83254 l 1.05322,14.6294 c 9.05046,-11.31309 21.18283,-16.97022 36.39699,-16.97022 z m 54.30323,2.34082 h 35.34377 l 23.52393,85.31546 23.52247,-85.31546 h 35.34377 L 438.65128,509.05535 H 406.35 Z" />
</svg>
