<?xml version="1.0" encoding="UTF-8" standalone="no"?>
<svg
   xmlns:dc="http://purl.org/dc/elements/1.1/"
   xmlns:cc="http://creativecommons.org/ns#"
   xmlns:rdf="http://www.w3.org/1999/02/22-rdf-syntax-ns#"
   xmlns:svg="http://www.w3.org/2000/svg"
   xmlns="http://www.w3.org/2000/svg"
   xmlns:sodipodi="http://sodipodi.sourceforge.net/DTD/sodipodi-0.dtd"
   xmlns:inkscape="http://www.inkscape.org/namespaces/inkscape"
   height="612"
   width="612"
   viewBox="0 0 612 612"
   version="1.1"
   id="svg843"
   sodipodi:docname="logo.svg"
   inkscape:version="0.92.2 (5c3e80d, 2017-08-06)">
  <metadata
     id="metadata849">
    <rdf:RDF>
      <cc:Work
         rdf:about="">
        <dc:format>image/svg+xml</dc:format>
        <dc:type
           rdf:resource="http://purl.org/dc/dcmitype/StillImage" />
        <dc:title></dc:title>
      </cc:Work>
    </rdf:RDF>
  </metadata>
  <defs
     id="defs847" />
  <sodipodi:namedview
     pagecolor="#ffffff"
     bordercolor="#666666"
     borderopacity="1"
     objecttolerance="10"
     gridtolerance="10"
     guidetolerance="10"
     inkscape:pageopacity="0"
     inkscape:pageshadow="2"
     inkscape:window-width="1280"
     inkscape:window-height="721"
     id="namedview845"
     showgrid="false"
     inkscape:zoom="0.38562092"
     inkscape:cx="-217.83051"
     inkscape:cy="306"
     inkscape:window-x="0"
     inkscape:window-y="27"
     inkscape:window-maximized="1"
     inkscape:current-layer="g1410" />
  <g
     id="g1410">
    <path
       id="path829"
       d="m 510,8 a 94.3,94.3 0 0 1 94,94 v 408 a 94.3,94.3 0 0 1 -94,94 H 102 A 94.3,94.3 0 0 1 8,510 V 102 A 94.3,94.3 0 0 1 102,8 h 408 m 0,-8 H 102 C 45.9,0 0,45.9 0,102 v 408 c 0,56.1 45.9,102 102,102 h 408 c 56.1,0 102,-45.9 102,-102 V 102 C 612,45.9 566.1,0 510,0 Z"
       style="fill:currentColor" />
    <g
       id="g1400"
       transform="translate(0,-1.139)">
      <path
         style="fill:currentColor"
         d="m 181.96522,225.9532 v 52.56492 H 151.2255 V 129.328 h 58.20054 q 16.80438,0 29.51013,6.14795 12.80822,6.14794 19.67342,17.52164 6.86521,11.27123 6.86521,25.7189 0,21.92767 -15.06246,34.63342 -14.96,12.60329 -41.49863,12.60329 z m 0,-24.89918 h 27.46082 q 12.19342,0 18.5463,-5.73808 6.45534,-5.73808 6.45534,-16.39452 0,-10.96383 -6.45534,-17.72657 -6.45534,-6.76274 -17.82904,-6.96767 h -28.17808 z"
         id="path831"
         inkscape:connector-curvature="0" />
      <path
         style="fill:currentColor"
         d="m 331.56136,280.56744 q -24.38684,0 -39.7567,-14.96 -15.2674,-14.96 -15.2674,-39.85917 v -2.86904 q 0,-16.70192 6.45534,-29.81754 6.45534,-13.21808 18.2389,-20.28821 11.88603,-7.1726 27.05096,-7.1726 22.74739,0 35.76054,14.3452 13.11562,14.3452 13.11562,40.6789 v 12.09096 h -70.5989 q 1.43452,10.86137 8.60712,17.41917 7.27507,6.55781 18.34137,6.55781 17.11178,0 26.74356,-12.39835 l 14.55014,16.29205 q -6.66028,9.42685 -18.03397,14.75507 -11.3737,5.22575 -25.20658,5.22575 z m -3.38137,-90.98958 q -8.81205,0 -14.3452,5.94301 -5.43068,5.94302 -6.96767,17.00932 h 41.19123 v -2.35672 q -0.20493,-9.83671 -5.32822,-15.16493 -5.12329,-5.43068 -14.55014,-5.43068 z"
         id="path833"
         inkscape:connector-curvature="0" />
      <path
         style="fill:currentColor"
         d="m 460.36464,195.41841 q -6.04548,-0.81973 -10.65644,-0.81973 -16.80438,0 -22.03013,11.3737 v 72.54574 h -29.6126 V 167.65019 h 27.97315 l 0.81972,13.21808 q 8.91452,-15.26739 24.69425,-15.26739 4.91835,0 9.22191,1.33205 z"
         id="path835"
         inkscape:connector-curvature="0" />
      <path
         style="fill:currentColor"
         d="M 183.91207,446.398 H 153.17235 V 297.20788 h 30.73972 z"
         id="path837"
         inkscape:connector-curvature="0" />
      <path
         style="fill:currentColor"
         d="m 237.60412,335.53006 0.92219,12.80822 q 11.88602,-14.85753 31.86684,-14.85753 17.62411,0 26.23123,10.34904 8.60712,10.34904 8.81206,30.94465 V 446.398 h -29.6126 v -70.9063 q 0,-9.42685 -4.09863,-13.62794 -4.09863,-4.30356 -13.62795,-4.30356 -12.50082,0 -18.75123,10.65644 V 446.398 h -29.6126 V 335.53006 Z"
         id="path839"
         inkscape:connector-curvature="0" />
      <path
         style="fill:currentColor"
         d="m 369.47753,410.22759 20.59561,-74.69753 h 30.94466 l -37.4,110.86794 h -28.28054 l -37.4,-110.86794 h 30.94466 z"
         id="path841"
         inkscape:connector-curvature="0" />
    </g>
  </g>
</svg>
